<svg xmlns="http://www.w3.org/2000/svg" xmlns:xlink="http://www.w3.org/1999/xlink" width="57" height="57" viewBox="0 0 57 57">
  <g id="Mask_Group_4" data-name="Mask Group 4" transform="translate(0)" clip-path="url(#clip-path)">
    <g id="brand" transform="translate(5.09 0.33)">
      <g id="Group_20" data-name="Group 20" transform="translate(0 13.528)">
        <g id="Group_19" data-name="Group 19">
          <path id="Path_13" data-name="Path 13" d="M48.641,35.154A11.271,11.271,0,0,1,42.533,27.1a.829.829,0,0,0-1.633.287,12.92,12.92,0,0,0,6.984,9.242,29.813,29.813,0,0,1-3.476,6.911c-2.031,2.97-4.333,6.335-7.75,6.4s-4.672-2.186-9.065-2.186-5.791,2.125-9.044,2.253c-3.062.117-5.518-3.057-7.972-6.6-4.534-6.559-8.13-18.709-3.449-26.833a12.737,12.737,0,0,1,8.89-6.318.829.829,0,1,0-.274-1.635A14.389,14.389,0,0,0,5.691,15.743c-5,8.683-1.4,21.488,3.523,28.6,2.024,2.926,5.065,7.322,9.179,7.322,3.709,0,5.1-2.256,9.2-2.257,4,0,5.172,2.259,9.1,2.186,4.273-.081,6.943-3.985,9.088-7.121a31.513,31.513,0,0,0,3.679-7.317A1.65,1.65,0,0,0,48.641,35.154Z" transform="translate(-3.287 -8.606)" stroke="#000" stroke-width="0.15"/>
        </g>
      </g>
      <g id="Group_22" data-name="Group 22" transform="translate(22.25)">
        <g id="Group_21" data-name="Group 21">
          <path id="Path_14" data-name="Path 14" d="M30.243,1.6a1.646,1.646,0,0,0-1.9-1.584C21.9,1,17.243,7.231,17.447,12.7a1.641,1.641,0,0,0,1.633,1.575h.046C25.155,14.1,30.375,7.839,30.243,1.6ZM19.1,12.615a11.081,11.081,0,0,1,2.784-7.159,11.883,11.883,0,0,1,6.7-3.8C28.685,6.932,24.255,12.451,19.1,12.615Z" transform="translate(-17.441 0)" stroke="#000" stroke-width="0.15"/>
        </g>
      </g>
      <g id="Group_24" data-name="Group 24" transform="translate(15.634 13.186)">
        <g id="Group_23" data-name="Group 23">
          <path id="Path_15" data-name="Path 15" d="M41.911,13.491A13.666,13.666,0,0,0,31.76,8.418c-4.709-.349-8.723,2.527-10.577,2.527-1.517,0-4.131-1.6-6.957-2.179a.829.829,0,1,0-.33,1.625c2.765.562,5.277,2.212,7.287,2.212,2.417,0,6.12-2.853,10.454-2.532A12.03,12.03,0,0,1,40.594,14.5a13.373,13.373,0,0,0-5.483,8.893.829.829,0,0,0,.714.93.844.844,0,0,0,.109.007.829.829,0,0,0,.821-.721A11.705,11.705,0,0,1,41.57,15.84,1.645,1.645,0,0,0,41.911,13.491Z" transform="translate(-13.232 -8.388)" stroke="#000" stroke-width="0.15"/>
        </g>
      </g>
    </g>
  </g>
</svg>
