<svg xmlns="http://www.w3.org/2000/svg" xmlns:xlink="http://www.w3.org/1999/xlink" width="57" height="57" viewBox="0 0 57 57">
  <g id="Mask_Group_5" data-name="Mask Group 5" clip-path="url(#clip-path)">
    <g id="box" transform="translate(1.696 0.434)">
      <g id="Group_36" data-name="Group 36" transform="translate(0 0)">
        <g id="Group_35" data-name="Group 35">
          <path id="Path_16" data-name="Path 16" d="M53.705,12.487,28.011.082a.829.829,0,0,0-.721,0L1.6,12.487a.829.829,0,0,0-.469.747V43.357A.829.829,0,0,0,1.6,44.1l25.694,12.4a.829.829,0,0,0,.721,0L53.705,44.1a.829.829,0,0,0,.469-.747V13.233A.829.829,0,0,0,53.705,12.487ZM27.651,1.749,51.438,13.233l-6.9,3.329a.822.822,0,0,0-.14-.088L20.776,5.068ZM18.9,6.005,42.657,17.472l-4.865,2.349L14.049,8.359ZM43.213,19.045v8.682L38.669,29.92V21.239Zm9.3,23.792-24.036,11.6V26.157l5.733-2.768a.829.829,0,1,0-.721-1.493l-5.842,2.82-2.3-1.11a.829.829,0,1,0-.721,1.493l2.19,1.057V54.441L2.785,42.837V14.554l18.3,8.836a.829.829,0,0,0,.721-1.493L3.863,13.233,12.1,9.258,37,21.279l.011.015v9.947a.829.829,0,0,0,1.189.747l6.2-2.994a.829.829,0,0,0,.469-.747v-10l7.645-3.691V42.837Z" transform="translate(-1.127 0)"/>
        </g>
      </g>
      <g id="Group_38" data-name="Group 38" transform="translate(3.539 37.719)">
        <g id="Group_37" data-name="Group 37">
          <path id="Path_17" data-name="Path 17" d="M8.339,25.9l-3.771-1.82a.829.829,0,1,0-.721,1.493l3.771,1.82A.829.829,0,0,0,8.339,25.9Z" transform="translate(-3.378 -23.995)"/>
        </g>
      </g>
      <g id="Group_40" data-name="Group 40" transform="translate(3.544 33.787)">
        <g id="Group_39" data-name="Group 39">
          <path id="Path_18" data-name="Path 18" d="M11.807,25.07,4.571,21.576a.829.829,0,1,0-.721,1.493l7.236,3.493a.829.829,0,0,0,.721-1.493Z" transform="translate(-3.382 -21.494)"/>
        </g>
      </g>
    </g>
  </g>
</svg>
