<svg xmlns="http://www.w3.org/2000/svg" xmlns:xlink="http://www.w3.org/1999/xlink" width="57" height="56" viewBox="0 0 57 56">
  <g id="Mask_Group_6" data-name="Mask Group 6" clip-path="url(#clip-path)">
    <g id="law" transform="translate(-0.076 -0.462)">
      <g id="Group_42" data-name="Group 42" transform="translate(11.131 18.947)">
        <g id="Group_41" data-name="Group 41">
          <path id="Path_19" data-name="Path 19" d="M8.968,12.376a1.105,1.105,0,1,0,0,1.563A1.106,1.106,0,0,0,8.968,12.376Z" transform="translate(-7.081 -12.053)"/>
        </g>
      </g>
      <g id="Group_44" data-name="Group 44" transform="translate(0 43.326)">
        <g id="Group_43" data-name="Group 43">
          <path id="Path_20" data-name="Path 20" d="M27.986,33.721a3.869,3.869,0,0,0-3.118-6.16H6.079A3.866,3.866,0,0,0,2.964,33.72,5.531,5.531,0,0,0,0,38.614v1.105a1.105,1.105,0,0,0,1.105,1.105H29.842a1.105,1.105,0,0,0,1.105-1.105V38.614A5.531,5.531,0,0,0,27.986,33.721ZM4.906,30.257a1.647,1.647,0,0,1,1.172-.485H24.868a1.658,1.658,0,1,1,0,3.316H6.079a1.658,1.658,0,0,1-1.172-2.83Zm-2.7,8.357A3.32,3.32,0,0,1,5.526,35.3H25.421a3.32,3.32,0,0,1,3.316,3.316Z" transform="translate(0 -27.562)"/>
        </g>
      </g>
      <g id="Group_46" data-name="Group 46" transform="translate(0.002 0)">
        <g id="Group_45" data-name="Group 45">
          <path id="Path_21" data-name="Path 21" d="M55.561,46.436a6.96,6.96,0,0,0-1.331-1.529l-5.164-4.5a1.1,1.1,0,0,0-.44-.383L45.5,37.295,31.046,24.685a3.31,3.31,0,0,0-.971-5.279l1.337-1.337a4.424,4.424,0,0,0,4.268-1.142,4.42,4.42,0,0,0,0-6.253L26.3,1.3a4.419,4.419,0,0,0-7.395,4.268L5.564,18.907a4.448,4.448,0,0,0-1.144-.15A4.42,4.42,0,0,0,1.294,26.3l9.378,9.378a4.419,4.419,0,0,0,7.4-4.268L19.4,30.079a3.317,3.317,0,0,0,5.281.969l15.4,17.691a1.11,1.11,0,0,0,.15.187c.02.02.041.038.062.056l4.588,5.272c.114.135.236.267.363.394a6.574,6.574,0,0,0,4.672,1.943,6.784,6.784,0,0,0,.93-.064,6.688,6.688,0,0,0,4.934-3.416A6.54,6.54,0,0,0,55.561,46.436ZM21.614,2.858a2.21,2.21,0,0,1,3.126,0l9.378,9.378a2.21,2.21,0,0,1-3.125,3.126L21.614,5.984h0A2.212,2.212,0,0,1,21.614,2.858Zm-6.252,31.26a2.213,2.213,0,0,1-3.127,0L2.857,24.741a2.21,2.21,0,0,1,3.125-3.127l9.38,9.38A2.212,2.212,0,0,1,15.362,34.119Zm4.653-7.779-3.09,3.091L7.546,20.051l12.5-12.5,9.379,9.379-3.1,3.1-.031.029L20.054,26.3Zm3.947,2.306-.007.007-.778.778A1.105,1.105,0,0,1,21.6,27.881L27.878,21.6a1.105,1.105,0,0,1,1.875.794,1.1,1.1,0,0,1-.324.781l-.774.774-.016.016Zm2.289.837,3.23-3.23,13.677,11.93-4.991,4.991ZM39.622,44.845l5.206-5.206L46.5,41.1l-5.421,5.421ZM53.851,52.03a4.5,4.5,0,0,1-3.309,2.307,4.392,4.392,0,0,1-3.737-1.253c-.085-.085-.166-.173-.242-.263l-.011-.012-4.021-4.62,5.636-5.636,4.615,4.025.011.009a4.758,4.758,0,0,1,.912,1.049A4.364,4.364,0,0,1,53.851,52.03Z" transform="translate(-0.001 0)"/>
        </g>
      </g>
      <g id="Group_48" data-name="Group 48" transform="translate(14.257 11.131)">
        <g id="Group_47" data-name="Group 47">
          <path id="Path_22" data-name="Path 22" d="M15.646,7.4a1.105,1.105,0,0,0-1.563,0l-4.69,4.69a1.105,1.105,0,0,0,1.563,1.563l4.69-4.69A1.105,1.105,0,0,0,15.646,7.4Z" transform="translate(-9.069 -7.081)"/>
        </g>
      </g>
    </g>
  </g>
</svg>
