<svg id="Group_54" data-name="Group 54" xmlns="http://www.w3.org/2000/svg" width="13.093" height="15.403" viewBox="0 0 13.093 15.403">
  <path id="Path_23" data-name="Path 23" d="M6.557.023V0L6.546.012,6.535,0V.023C6.325.237,4.535,1.908,0,1.65V6.2a9.278,9.278,0,0,0,3.185,7.058A13.185,13.185,0,0,0,6.546,15.4a13.175,13.175,0,0,0,3.361-2.149A9.278,9.278,0,0,0,13.093,6.2V1.65C8.557,1.908,6.767.237,6.557.023Z" fill="#52aa5e"/>
  <g id="Group_53" data-name="Group 53" transform="translate(2.613 4.211)">
    <path id="Path_2" data-name="Path 2" d="M11.865,6.679l-1.21-1.211L6.7,9.423l-2.1-2.1L3.393,8.536l2.1,2.1h0L6.7,11.843l1.211-1.211h0Z" transform="translate(-3.393 -5.468)" fill="#fff"/>
  </g>
</svg>
